<?xml version="1.0" standalone="no"?><!DOCTYPE svg PUBLIC "-//W3C//DTD SVG 1.1//EN" "http://www.w3.org/Graphics/SVG/1.1/DTD/svg11.dtd"><svg t="1731564221651" class="icon" viewBox="0 0 1024 1024" version="1.1" xmlns="http://www.w3.org/2000/svg" p-id="2420" xmlns:xlink="http://www.w3.org/1999/xlink" width="16" height="16"><path d="M401.59 720.1h242.13V858H401.59z" fill="#ED6BB0" p-id="2421"></path><path d="M833.18 700.24l-24.06-101.66a218.799 218.799 0 0 1-5.88-50.4v-105.6C803.24 287.62 677.62 162 522.66 162c-154.96 0-280.58 125.62-280.58 280.58v105.6c0 16.97-1.97 33.89-5.88 50.4l-24.06 101.66c-5.42 22.89 11.94 44.83 35.46 44.83h550.12c23.52 0 40.88-21.95 35.46-44.83z" fill="#EFB6D2" p-id="2422"></path><path d="M369.59 485.57h306.13c18 0 32.61 14.61 32.61 32.61v124.68c0 94.38-76.62 171-171 171h-29.35c-94.38 0-171-76.62-171-171V518.18c0-18 14.61-32.61 32.61-32.61z" fill="#FFFFFF" p-id="2423"></path><path d="M522.5 287.5c112.97 0 206.36 83.72 221.57 192.5 1.43-10.21 2.18-20.64 2.18-31.25C746.25 325.18 646.07 225 522.5 225S298.75 325.18 298.75 448.75c0 10.61 0.76 21.04 2.18 31.25 15.2-108.78 108.6-192.5 221.57-192.5z" fill="#ED6BB0" p-id="2424"></path></svg>