<?xml version="1.0" standalone="no"?><!DOCTYPE svg PUBLIC "-//W3C//DTD SVG 1.1//EN" "http://www.w3.org/Graphics/SVG/1.1/DTD/svg11.dtd"><svg class="icon" width="13px" height="13px" viewBox="0 0 1024 1024" version="1.1" xmlns="http://www.w3.org/2000/svg"><path d="M512 37.925926L102.4 273.066667v474.074074L512 986.074074l409.6-235.140741V273.066667L512 37.925926z m379.259259 690.251852l-379.259259 219.97037-379.259259-219.97037V295.822222l379.259259-219.97037 379.259259 219.97037v432.355556z" fill="#1E5199" /><path d="M614.4 443.733333l68.266667 68.266667-68.266667 68.266667c-7.585185 7.585185-7.585185 18.962963 0 26.548148 7.585185 7.585185 18.962963 7.585185 26.548148 0l79.644445-79.644445c3.792593-3.792593 3.792593-7.585185 3.792592-15.17037 0-3.792593 0-11.377778-3.792592-15.17037L640.948148 417.185185c-7.585185-7.585185-18.962963-7.585185-26.548148 0-7.585185 7.585185-7.585185 18.962963 0 26.548148zM409.6 580.266667L341.333333 512l68.266667-68.266667c7.585185-7.585185 7.585185-18.962963 0-26.548148-7.585185-7.585185-18.962963-7.585185-26.548148 0L303.407407 496.82963c-3.792593 3.792593-3.792593 7.585185-3.792592 15.17037 0 3.792593 0 11.377778 3.792592 15.17037l79.644445 79.644445c7.585185 7.585185 18.962963 7.585185 26.548148 0 7.585185-7.585185 7.585185-18.962963 0-26.548148zM417.185185 675.081481c7.585185 3.792593 18.962963 3.792593 26.548148-7.585185l170.666667-295.822222c3.792593-7.585185 3.792593-18.962963-7.585185-26.548148-7.585185-3.792593-18.962963-3.792593-26.548148 7.585185l-170.666667 295.822222c-3.792593 11.377778 0 22.755556 7.585185 26.548148z" fill="#1E5199" /></svg>